<?xml version="1.0" standalone="no"?><!-- Generator: Gravit.io --><svg xmlns="http://www.w3.org/2000/svg" xmlns:xlink="http://www.w3.org/1999/xlink" style="isolation:isolate" viewBox="0 0 48 48" width="48" height="48"><g opacity="0.22"><radialGradient id="_rgradient_28" fx="50%" fy="50%" cx="50%" cy="50%" r="50%"><stop offset="0%" style="stop-color:rgb(0,0,0)"/><stop offset="100%" style="stop-color:rgb(0,0,0)"/></radialGradient><path d=" M 43.643 43.607 C 43.641 44.783 34.775 45.75 24 45.75 C 13.225 45.75 4.359 44.783 4.357 43.607 C 4.357 43.607 4.357 43.607 4.357 43.607 C 4.357 42.431 13.224 41.464 24 41.464 C 34.776 41.464 43.643 42.431 43.643 43.607 C 43.643 43.607 43.643 43.607 43.643 43.607 Z " fill="url(#_rgradient_28)"/></g><g id="g3712"><g id="null" style="opacity:0.4;"><g opacity="0.4"><radialGradient id="_rgradient_29" fx="0%" fy="0%" cx="50%" cy="50%" r="100%" gradientTransform="matrix(1.0018919999999998 0 0 0.5 0.2968203125 0.33984375)"><stop offset="0%" style="stop-color:rgb(24,24,24)"/><stop offset="100%" style="stop-color:rgb(24,24,24)"/></radialGradient><rect x="38.211" y="42.893" width="5.075" height="1.786" transform="matrix(1,0,0,1,0,0)" fill="url(#_rgradient_29)"/></g><g id="rect3696" style="opacity:0.4;"><g opacity="0.4"><radialGradient id="_rgradient_30" fx="0%" fy="0%" cx="50%" cy="50%" r="100%" gradientTransform="matrix(1.0018919999999998 0 0 0.5 -0.0781796875 -0.33984375)"><stop offset="0%" style="stop-color:rgb(24,24,24)"/><stop offset="100%" style="stop-color:rgb(24,24,24)"/></radialGradient><rect x="4.714" y="42.893" width="5.075" height="1.786" transform="matrix(-1,0,0,-1,14.504,87.572)" fill="url(#_rgradient_30)"/></g></g><g opacity="0.4"><linearGradient id="_lgradient_14" x1="53.77892857142857%" y1="100.39571428571436%" x2="53.77892857142859%" y2="-0.008428571428442666%"><stop offset="0%" stop-opacity="0" style="stop-color:rgb(24,24,24)"/><stop offset="50%" stop-opacity="1" style="stop-color:rgb(24,24,24)"/><stop offset="100%" stop-opacity="0" style="stop-color:rgb(24,24,24)"/></linearGradient><rect x="9.789" y="42.893" width="28.421" height="1.786" transform="matrix(1,0,0,1,0,0)" fill="url(#_lgradient_14)"/></g></g></g><radialGradient id="_rgradient_31" fx="0%" fy="0%" cx="50%" cy="50%" r="100%" gradientTransform="matrix(0 3.085941747572815 -3.788553398058252 0 0.51714765625 -0.30680390625)"><stop offset="0%" style="stop-color:rgb(147,166,232)"/><stop offset="19.130434782608695%" style="stop-color:rgb(94,108,159)"/><stop offset="50%" style="stop-color:rgb(71,80,113)"/><stop offset="100%" style="stop-color:rgb(57,65,94)"/></radialGradient><path d=" M 42.393 9.163 C 42.393 7.969 41.424 7 40.23 7 L 7.77 7 C 6.576 7 5.607 7.969 5.607 9.163 L 5.607 41.624 C 5.607 42.817 6.576 43.786 7.77 43.786 L 40.23 43.786 C 41.424 43.786 42.393 42.817 42.393 41.624 L 42.393 9.163 Z " fill-rule="evenodd" fill="url(#_rgradient_31)"/><linearGradient id="_lgradient_15" x1="50%" y1="-1.351386138613861%" x2="49.999999999999986%" y2="101.35158415841585%"><stop offset="0%" stop-opacity="0.3" style="stop-color:rgb(255,255,255)"/><stop offset="6%" stop-opacity="0.0705882" style="stop-color:rgb(255,255,255)"/><stop offset="95%" stop-opacity="0.0470588" style="stop-color:rgb(255,255,255)"/><stop offset="100%" stop-opacity="0.117647" style="stop-color:rgb(255,255,255)"/></linearGradient><path d=" M 42.036 9.143 C 42.036 8.157 41.236 7.357 40.25 7.357 L 7.75 7.357 C 6.764 7.357 5.964 8.157 5.964 9.143 L 5.964 41.643 C 5.964 42.629 6.764 43.429 7.75 43.429 L 40.25 43.429 C 41.236 43.429 42.036 42.629 42.036 41.643 L 42.036 9.143 Z " fill-rule="evenodd" fill="none" vector-effect="non-scaling-stroke" stroke-width="0.357" stroke="url(#_lgradient_15)" stroke-linejoin="round" stroke-linecap="round" stroke-miterlimit="4"/><path d=" M 42.393 9.143 C 42.393 7.96 41.432 7 40.25 7 L 7.75 7 C 6.568 7 5.607 7.96 5.607 9.143 L 5.607 41.643 C 5.607 42.826 6.568 43.786 7.75 43.786 L 40.25 43.786 C 41.432 43.786 42.393 42.826 42.393 41.643 L 42.393 9.143 Z " fill-rule="evenodd" fill="none" vector-effect="non-scaling-stroke" stroke-width="0.357" stroke="rgb(47,55,79)" stroke-linejoin="round" stroke-linecap="round" stroke-miterlimit="4"/><path d=" M 29.601 31.598 C 28.909 31.598 28.243 31.598 27.544 31.598 C 28.156 28.45 28.765 25.316 29.376 22.175 C 29.435 22.17 29.483 22.161 29.531 22.161 C 30.858 22.16 32.185 22.15 33.511 22.168 C 33.886 22.173 34.269 22.227 34.633 22.319 C 35.816 22.619 36.518 23.497 36.529 24.715 C 36.543 26.148 36.019 27.345 34.883 28.253 C 34.147 28.842 33.285 29.048 32.371 29.078 C 31.68 29.101 30.987 29.091 30.295 29.088 C 30.147 29.087 30.081 29.12 30.051 29.282 C 29.912 30.05 29.755 30.815 29.601 31.598 Z  M 30.376 27.628 C 31.093 27.6 31.76 27.607 32.42 27.54 C 33.282 27.451 33.895 26.985 34.149 26.142 C 34.27 25.737 34.347 25.308 34.366 24.887 C 34.396 24.221 34.115 23.843 33.454 23.752 C 32.701 23.649 31.934 23.65 31.158 23.605 C 30.894 24.962 30.641 26.266 30.376 27.628 Z  M 13.528 31.595 C 12.835 31.595 12.162 31.595 11.47 31.595 C 12.081 28.451 12.69 25.32 13.301 22.176 C 13.369 22.17 13.433 22.161 13.496 22.161 C 14.798 22.16 16.1 22.151 17.402 22.168 C 17.769 22.172 18.143 22.22 18.5 22.307 C 19.672 22.593 20.349 23.336 20.438 24.534 C 20.612 26.873 19.047 28.522 17.5 28.9 C 17.087 29.001 16.657 29.057 16.232 29.076 C 15.558 29.106 14.881 29.091 14.205 29.088 C 14.066 29.087 14.006 29.123 13.979 29.272 C 13.838 30.04 13.683 30.806 13.528 31.595 Z  M 14.301 27.628 C 15.013 27.6 15.681 27.608 16.341 27.54 C 17.225 27.45 17.84 26.966 18.089 26.099 C 18.201 25.708 18.274 25.296 18.292 24.891 C 18.32 24.224 18.041 23.843 17.382 23.753 C 16.629 23.649 15.861 23.65 15.083 23.605 C 14.819 24.962 14.566 26.266 14.301 27.628 Z  M 21.875 19.656 C 22.569 19.656 23.234 19.656 23.916 19.656 C 23.755 20.493 23.597 21.315 23.434 22.16 C 23.989 22.16 24.524 22.141 25.058 22.165 C 25.598 22.189 26.149 22.203 26.675 22.314 C 27.786 22.551 28.254 23.273 28.055 24.409 C 27.829 25.697 27.567 26.978 27.321 28.263 C 27.278 28.489 27.242 28.717 27.185 28.939 C 27.17 28.998 27.088 29.083 27.036 29.083 C 26.396 29.093 25.755 29.09 25.086 29.09 C 25.206 28.466 25.322 27.87 25.436 27.275 C 25.601 26.41 25.777 25.548 25.927 24.681 C 26.036 24.047 25.791 23.732 25.145 23.704 C 24.488 23.675 23.829 23.698 23.134 23.698 C 22.786 25.481 22.438 27.269 22.086 29.073 C 21.413 29.073 20.742 29.073 20.044 29.073 C 20.655 25.931 21.264 22.802 21.875 19.656 Z " fill-rule="evenodd" fill="rgb(255,255,255)" fill-opacity="0.1"/><path d=" M 29.601 31.13 C 28.909 31.13 28.243 31.13 27.544 31.13 C 28.156 27.982 28.765 24.847 29.376 21.707 C 29.435 21.701 29.483 21.692 29.531 21.692 C 30.858 21.692 32.185 21.682 33.511 21.7 C 33.886 21.705 34.269 21.759 34.633 21.851 C 35.816 22.151 36.518 23.028 36.529 24.247 C 36.543 25.679 36.019 26.877 34.883 27.785 C 34.147 28.374 33.285 28.579 32.371 28.61 C 31.68 28.633 30.987 28.623 30.295 28.619 C 30.147 28.619 30.081 28.652 30.051 28.813 C 29.912 29.581 29.755 30.346 29.601 31.13 Z  M 30.376 27.16 C 31.093 27.132 31.76 27.139 32.42 27.071 C 33.282 26.983 33.895 26.517 34.149 25.673 C 34.27 25.269 34.347 24.84 34.366 24.419 C 34.396 23.752 34.115 23.374 33.454 23.284 C 32.701 23.18 31.934 23.182 31.158 23.137 C 30.894 24.494 30.641 25.798 30.376 27.16 Z  M 13.528 31.127 C 12.835 31.127 12.162 31.127 11.47 31.127 C 12.081 27.982 12.69 24.852 13.301 21.708 C 13.369 21.702 13.433 21.692 13.496 21.692 C 14.798 21.692 16.1 21.683 17.402 21.699 C 17.769 21.704 18.143 21.751 18.5 21.839 C 19.672 22.125 20.349 22.867 20.438 24.066 C 20.612 26.404 19.047 28.054 17.5 28.432 C 17.087 28.533 16.657 28.589 16.232 28.608 C 15.558 28.638 14.881 28.623 14.205 28.62 C 14.066 28.619 14.006 28.655 13.979 28.803 C 13.838 29.572 13.683 30.337 13.528 31.127 Z  M 14.301 27.16 C 15.013 27.132 15.681 27.14 16.341 27.072 C 17.225 26.981 17.84 26.498 18.089 25.63 C 18.201 25.24 18.274 24.828 18.292 24.422 C 18.32 23.756 18.041 23.375 17.382 23.284 C 16.629 23.181 15.861 23.182 15.083 23.136 C 14.819 24.494 14.566 25.798 14.301 27.16 Z  M 21.875 19.188 C 22.569 19.188 23.234 19.188 23.916 19.188 C 23.755 20.025 23.597 20.847 23.434 21.692 C 23.989 21.692 24.524 21.673 25.058 21.697 C 25.598 21.721 26.149 21.734 26.675 21.846 C 27.786 22.082 28.254 22.805 28.055 23.941 C 27.829 25.228 27.567 26.51 27.321 27.794 C 27.278 28.02 27.242 28.249 27.185 28.471 C 27.17 28.53 27.088 28.614 27.036 28.615 C 26.396 28.625 25.755 28.622 25.086 28.622 C 25.206 27.998 25.322 27.402 25.436 26.806 C 25.601 25.942 25.777 25.079 25.927 24.213 C 26.036 23.578 25.791 23.264 25.145 23.236 C 24.488 23.207 23.829 23.229 23.134 23.229 C 22.786 25.012 22.438 26.801 22.086 28.605 C 21.413 28.605 20.742 28.605 20.044 28.605 C 20.655 25.463 21.264 22.333 21.875 19.188 Z " fill-rule="evenodd" fill="rgb(47,55,79)"/><path d=" M 29.601 31.13 C 28.909 31.13 28.243 31.13 27.544 31.13 C 28.156 27.982 28.765 24.847 29.376 21.707 C 29.435 21.701 29.483 21.692 29.531 21.692 C 30.858 21.692 32.185 21.682 33.511 21.7 C 33.886 21.705 34.269 21.759 34.633 21.851 C 35.816 22.151 36.518 23.028 36.529 24.247 C 36.543 25.679 36.019 26.877 34.883 27.785 C 34.147 28.374 33.285 28.579 32.371 28.61 C 31.68 28.633 30.987 28.623 30.295 28.619 C 30.147 28.619 30.081 28.652 30.051 28.813 C 29.912 29.581 29.755 30.346 29.601 31.13 Z  M 30.376 27.16 C 31.093 27.132 31.76 27.139 32.42 27.071 C 33.282 26.983 33.895 26.517 34.149 25.673 C 34.27 25.269 34.347 24.84 34.366 24.419 C 34.396 23.752 34.115 23.374 33.454 23.284 C 32.701 23.18 31.934 23.182 31.158 23.137 C 30.894 24.494 30.641 25.798 30.376 27.16 Z  M 13.528 31.127 C 12.835 31.127 12.162 31.127 11.47 31.127 C 12.081 27.982 12.69 24.852 13.301 21.708 C 13.369 21.702 13.433 21.692 13.496 21.692 C 14.798 21.692 16.1 21.683 17.402 21.699 C 17.769 21.704 18.143 21.751 18.5 21.839 C 19.672 22.125 20.349 22.867 20.438 24.066 C 20.612 26.404 19.047 28.054 17.5 28.432 C 17.087 28.533 16.657 28.589 16.232 28.608 C 15.558 28.638 14.881 28.623 14.205 28.62 C 14.066 28.619 14.006 28.655 13.979 28.803 C 13.838 29.572 13.683 30.337 13.528 31.127 Z  M 14.301 27.16 C 15.013 27.132 15.681 27.14 16.341 27.072 C 17.225 26.981 17.84 26.498 18.089 25.63 C 18.201 25.24 18.274 24.828 18.292 24.422 C 18.32 23.756 18.041 23.375 17.382 23.284 C 16.629 23.181 15.861 23.182 15.083 23.136 C 14.819 24.494 14.566 25.798 14.301 27.16 Z  M 21.875 19.188 C 22.569 19.188 23.234 19.188 23.916 19.188 C 23.755 20.025 23.597 20.847 23.434 21.692 C 23.989 21.692 24.524 21.673 25.058 21.697 C 25.598 21.721 26.149 21.734 26.675 21.846 C 27.786 22.082 28.254 22.805 28.055 23.941 C 27.829 25.228 27.567 26.51 27.321 27.794 C 27.278 28.02 27.242 28.249 27.185 28.471 C 27.17 28.53 27.088 28.614 27.036 28.615 C 26.396 28.625 25.755 28.622 25.086 28.622 C 25.206 27.998 25.322 27.402 25.436 26.806 C 25.601 25.942 25.777 25.079 25.927 24.213 C 26.036 23.578 25.791 23.264 25.145 23.236 C 24.488 23.207 23.829 23.229 23.134 23.229 C 22.786 25.012 22.438 26.801 22.086 28.605 C 21.413 28.605 20.742 28.605 20.044 28.605 C 20.655 25.463 21.264 22.333 21.875 19.188 Z " fill-rule="evenodd" fill="none" vector-effect="non-scaling-stroke" stroke-width="0.468" stroke="rgb(0,0,0)" stroke-opacity="0.05" stroke-linejoin="miter" stroke-linecap="butt" stroke-miterlimit="4"/></svg>