<?xml version="1.0" standalone="no"?><!-- Generator: Gravit.io --><svg xmlns="http://www.w3.org/2000/svg" xmlns:xlink="http://www.w3.org/1999/xlink" style="isolation:isolate" viewBox="0 0 24 24" width="24" height="24"><g opacity="0.22"><radialGradient id="_rgradient_32" fx="50%" fy="50%" cx="50%" cy="50%" r="50%"><stop offset="0%" style="stop-color:rgb(0,0,0)"/><stop offset="100%" style="stop-color:rgb(0,0,0)"/></radialGradient><path d=" M 21.825 21.804 C 21.824 22.391 17.39 22.875 12.003 22.875 C 6.615 22.875 2.181 22.391 2.18 21.804 C 2.18 21.804 2.18 21.804 2.18 21.804 C 2.18 21.216 6.614 20.732 12.003 20.732 C 17.391 20.732 21.825 21.216 21.825 21.804 C 21.825 21.804 21.825 21.804 21.825 21.804 Z " fill="url(#_rgradient_32)"/></g><g id="g3712"><g id="null" style="opacity:0.4;"><g opacity="0.4"><radialGradient id="_rgradient_33" fx="0%" fy="0%" cx="50%" cy="50%" r="100%" gradientTransform="matrix(1.0018919999999998 0 0 0.5 0.2968203125 0.33984375)"><stop offset="0%" style="stop-color:rgb(24,24,24)"/><stop offset="100%" style="stop-color:rgb(24,24,24)"/></radialGradient><rect x="19.109" y="21.447" width="2.538" height="0.893" transform="matrix(1,0,0,1,0,0)" fill="url(#_rgradient_33)"/></g><g id="rect3696" style="opacity:0.4;"><g opacity="0.4"><radialGradient id="_rgradient_34" fx="0%" fy="0%" cx="50%" cy="50%" r="100%" gradientTransform="matrix(1.0018919999999998 0 0 0.5 -0.0781796875 -0.33984375)"><stop offset="0%" style="stop-color:rgb(24,24,24)"/><stop offset="100%" style="stop-color:rgb(24,24,24)"/></radialGradient><rect x="2.359" y="21.447" width="2.538" height="0.893" transform="matrix(-1,0,0,-1,7.255,43.786)" fill="url(#_rgradient_34)"/></g></g><g opacity="0.4"><linearGradient id="_lgradient_16" x1="53.77892857142857%" y1="100.39571428571436%" x2="53.77892857142859%" y2="-0.008428571428442666%"><stop offset="0%" stop-opacity="0" style="stop-color:rgb(24,24,24)"/><stop offset="50%" stop-opacity="1" style="stop-color:rgb(24,24,24)"/><stop offset="100%" stop-opacity="0" style="stop-color:rgb(24,24,24)"/></linearGradient><rect x="4.896" y="21.447" width="14.212" height="0.893" transform="matrix(1,0,0,1,0,0)" fill="url(#_lgradient_16)"/></g></g></g><radialGradient id="_rgradient_35" fx="0%" fy="0%" cx="50%" cy="50%" r="100%" gradientTransform="matrix(0 3.085941747572815 -3.788553398058252 0 0.51714765625 -0.30680390625)"><stop offset="0%" style="stop-color:rgb(147,166,232)"/><stop offset="19.130434782608695%" style="stop-color:rgb(94,108,159)"/><stop offset="50%" style="stop-color:rgb(71,80,113)"/><stop offset="100%" style="stop-color:rgb(57,65,94)"/></radialGradient><path d=" M 21.2 4.581 C 21.2 3.984 20.715 3.5 20.119 3.5 L 3.886 3.5 C 3.29 3.5 2.805 3.984 2.805 4.581 L 2.805 20.812 C 2.805 21.409 3.29 21.893 3.886 21.893 L 20.119 21.893 C 20.715 21.893 21.2 21.409 21.2 20.812 L 21.2 4.581 Z " fill-rule="evenodd" fill="url(#_rgradient_35)"/><linearGradient id="_lgradient_17" x1="50%" y1="-1.351386138613861%" x2="49.999999999999986%" y2="101.35158415841585%"><stop offset="0%" stop-opacity="0.3" style="stop-color:rgb(255,255,255)"/><stop offset="6%" stop-opacity="0.0705882" style="stop-color:rgb(255,255,255)"/><stop offset="95%" stop-opacity="0.0470588" style="stop-color:rgb(255,255,255)"/><stop offset="100%" stop-opacity="0.117647" style="stop-color:rgb(255,255,255)"/></linearGradient><path d=" M 21.021 4.571 C 21.021 4.079 20.621 3.679 20.128 3.679 L 3.877 3.679 C 3.384 3.679 2.984 4.079 2.984 4.571 L 2.984 20.822 C 2.984 21.314 3.384 21.714 3.877 21.714 L 20.128 21.714 C 20.621 21.714 21.021 21.314 21.021 20.822 L 21.021 4.571 Z " fill-rule="evenodd" fill="none" vector-effect="non-scaling-stroke" stroke-width="0.179" stroke="url(#_lgradient_17)" stroke-linejoin="round" stroke-linecap="round" stroke-miterlimit="4"/><path d=" M 21.2 4.571 C 21.2 3.98 20.72 3.5 20.128 3.5 L 3.877 3.5 C 3.285 3.5 2.805 3.98 2.805 4.571 L 2.805 20.822 C 2.805 21.413 3.285 21.893 3.877 21.893 L 20.128 21.893 C 20.72 21.893 21.2 21.413 21.2 20.822 L 21.2 4.571 Z " fill-rule="evenodd" fill="none" vector-effect="non-scaling-stroke" stroke-width="0.179" stroke="rgb(47,55,79)" stroke-linejoin="round" stroke-linecap="round" stroke-miterlimit="4"/><path d=" M 14.804 15.799 C 14.457 15.799 14.124 15.799 13.775 15.799 C 14.081 14.225 14.385 12.658 14.691 11.088 C 14.72 11.085 14.744 11.08 14.768 11.08 C 15.432 11.08 16.095 11.075 16.759 11.084 C 16.946 11.087 17.138 11.114 17.319 11.16 C 17.911 11.31 18.262 11.748 18.268 12.358 C 18.275 13.074 18.013 13.673 17.445 14.127 C 17.077 14.421 16.645 14.524 16.189 14.539 C 15.843 14.55 15.496 14.546 15.15 14.544 C 15.076 14.543 15.043 14.56 15.029 14.641 C 14.959 15.025 14.88 15.407 14.804 15.799 Z  M 15.191 13.814 C 15.549 13.8 15.883 13.804 16.213 13.77 C 16.644 13.726 16.951 13.493 17.078 13.071 C 17.138 12.869 17.176 12.654 17.186 12.444 C 17.201 12.11 17.061 11.921 16.73 11.876 C 16.354 11.824 15.97 11.825 15.582 11.803 C 15.45 12.481 15.323 13.133 15.191 13.814 Z  M 6.766 15.798 C 6.42 15.798 6.083 15.798 5.737 15.798 C 6.043 14.225 6.347 12.66 6.652 11.088 C 6.687 11.085 6.718 11.08 6.75 11.08 C 7.401 11.08 8.052 11.075 8.703 11.084 C 8.887 11.086 9.074 11.11 9.252 11.153 C 9.839 11.297 10.177 11.668 10.221 12.267 C 10.308 13.436 9.526 14.261 8.752 14.45 C 8.546 14.501 8.331 14.529 8.118 14.538 C 7.781 14.553 7.442 14.546 7.105 14.544 C 7.035 14.544 7.005 14.562 6.991 14.636 C 6.921 15.02 6.843 15.403 6.766 15.798 Z  M 7.152 13.814 C 7.509 13.8 7.843 13.804 8.173 13.77 C 8.615 13.725 8.922 13.483 9.046 13.049 C 9.103 12.854 9.139 12.648 9.148 12.445 C 9.162 12.112 9.023 11.922 8.693 11.876 C 8.316 11.825 7.933 11.825 7.544 11.802 C 7.412 12.481 7.285 13.133 7.152 13.814 Z  M 10.94 9.828 C 11.287 9.828 11.62 9.828 11.961 9.828 C 11.88 10.246 11.801 10.657 11.719 11.08 C 11.997 11.08 12.265 11.071 12.531 11.083 C 12.802 11.095 13.077 11.101 13.34 11.157 C 13.896 11.275 14.13 11.637 14.03 12.204 C 13.917 12.848 13.786 13.489 13.663 14.131 C 13.642 14.244 13.624 14.358 13.595 14.47 C 13.587 14.499 13.547 14.541 13.521 14.542 C 13.2 14.547 12.88 14.545 12.546 14.545 C 12.606 14.233 12.663 13.935 12.72 13.637 C 12.803 13.205 12.891 12.774 12.966 12.34 C 13.021 12.023 12.898 11.866 12.575 11.852 C 12.246 11.838 11.917 11.849 11.569 11.849 C 11.396 12.74 11.221 13.634 11.045 14.537 C 10.709 14.537 10.373 14.537 10.024 14.537 C 10.33 12.966 10.634 11.401 10.94 9.828 Z " fill-rule="evenodd" fill="rgb(255,255,255)" fill-opacity="0.1"/><path d=" M 14.804 15.565 C 14.457 15.565 14.124 15.565 13.775 15.565 C 14.081 13.991 14.385 12.424 14.691 10.854 C 14.72 10.851 14.744 10.846 14.768 10.846 C 15.432 10.846 16.095 10.841 16.759 10.85 C 16.946 10.853 17.138 10.879 17.319 10.926 C 17.911 11.075 18.262 11.514 18.268 12.123 C 18.275 12.84 18.013 13.438 17.445 13.893 C 17.077 14.187 16.645 14.29 16.189 14.305 C 15.843 14.316 15.496 14.311 15.15 14.31 C 15.076 14.309 15.043 14.326 15.029 14.407 C 14.959 14.791 14.88 15.173 14.804 15.565 Z  M 15.191 13.58 C 15.549 13.566 15.883 13.57 16.213 13.536 C 16.644 13.492 16.951 13.259 17.078 12.837 C 17.138 12.635 17.176 12.42 17.186 12.209 C 17.201 11.876 17.061 11.687 16.73 11.642 C 16.354 11.59 15.97 11.591 15.582 11.568 C 15.45 12.247 15.323 12.899 15.191 13.58 Z  M 6.766 15.563 C 6.42 15.563 6.083 15.563 5.737 15.563 C 6.043 13.991 6.347 12.426 6.652 10.854 C 6.687 10.851 6.718 10.846 6.75 10.846 C 7.401 10.846 8.052 10.841 8.703 10.85 C 8.887 10.852 9.074 10.876 9.252 10.919 C 9.839 11.062 10.177 11.434 10.221 12.033 C 10.308 13.202 9.526 14.027 8.752 14.216 C 8.546 14.266 8.331 14.294 8.118 14.304 C 7.781 14.319 7.442 14.311 7.105 14.31 C 7.035 14.309 7.005 14.327 6.991 14.402 C 6.921 14.786 6.843 15.169 6.766 15.563 Z  M 7.152 13.58 C 7.509 13.566 7.843 13.57 8.173 13.536 C 8.615 13.491 8.922 13.249 9.046 12.815 C 9.103 12.62 9.139 12.414 9.148 12.211 C 9.162 11.878 9.023 11.687 8.693 11.642 C 8.316 11.59 7.933 11.591 7.544 11.568 C 7.412 12.247 7.285 12.899 7.152 13.58 Z  M 10.94 9.594 C 11.287 9.594 11.62 9.594 11.961 9.594 C 11.88 10.012 11.801 10.423 11.719 10.846 C 11.997 10.846 12.265 10.837 12.531 10.848 C 12.802 10.861 13.077 10.867 13.34 10.923 C 13.896 11.041 14.13 11.402 14.03 11.97 C 13.917 12.614 13.786 13.255 13.663 13.897 C 13.642 14.01 13.624 14.124 13.595 14.236 C 13.587 14.265 13.547 14.307 13.521 14.308 C 13.2 14.312 12.88 14.311 12.546 14.311 C 12.606 13.999 12.663 13.701 12.72 13.403 C 12.803 12.971 12.891 12.54 12.966 12.106 C 13.021 11.789 12.898 11.632 12.575 11.618 C 12.246 11.604 11.917 11.615 11.569 11.615 C 11.396 12.506 11.221 13.4 11.045 14.302 C 10.709 14.302 10.373 14.302 10.024 14.302 C 10.33 12.731 10.634 11.167 10.94 9.594 Z " fill-rule="evenodd" fill="rgb(47,55,79)"/><path d=" M 14.804 15.565 C 14.457 15.565 14.124 15.565 13.775 15.565 C 14.081 13.991 14.385 12.424 14.691 10.854 C 14.72 10.851 14.744 10.846 14.768 10.846 C 15.432 10.846 16.095 10.841 16.759 10.85 C 16.946 10.853 17.138 10.879 17.319 10.926 C 17.911 11.075 18.262 11.514 18.268 12.123 C 18.275 12.84 18.013 13.438 17.445 13.893 C 17.077 14.187 16.645 14.29 16.189 14.305 C 15.843 14.316 15.496 14.311 15.15 14.31 C 15.076 14.309 15.043 14.326 15.029 14.407 C 14.959 14.791 14.88 15.173 14.804 15.565 Z  M 15.191 13.58 C 15.549 13.566 15.883 13.57 16.213 13.536 C 16.644 13.492 16.951 13.259 17.078 12.837 C 17.138 12.635 17.176 12.42 17.186 12.209 C 17.201 11.876 17.061 11.687 16.73 11.642 C 16.354 11.59 15.97 11.591 15.582 11.568 C 15.45 12.247 15.323 12.899 15.191 13.58 Z  M 6.766 15.563 C 6.42 15.563 6.083 15.563 5.737 15.563 C 6.043 13.991 6.347 12.426 6.652 10.854 C 6.687 10.851 6.718 10.846 6.75 10.846 C 7.401 10.846 8.052 10.841 8.703 10.85 C 8.887 10.852 9.074 10.876 9.252 10.919 C 9.839 11.062 10.177 11.434 10.221 12.033 C 10.308 13.202 9.526 14.027 8.752 14.216 C 8.546 14.266 8.331 14.294 8.118 14.304 C 7.781 14.319 7.442 14.311 7.105 14.31 C 7.035 14.309 7.005 14.327 6.991 14.402 C 6.921 14.786 6.843 15.169 6.766 15.563 Z  M 7.152 13.58 C 7.509 13.566 7.843 13.57 8.173 13.536 C 8.615 13.491 8.922 13.249 9.046 12.815 C 9.103 12.62 9.139 12.414 9.148 12.211 C 9.162 11.878 9.023 11.687 8.693 11.642 C 8.316 11.59 7.933 11.591 7.544 11.568 C 7.412 12.247 7.285 12.899 7.152 13.58 Z  M 10.94 9.594 C 11.287 9.594 11.62 9.594 11.961 9.594 C 11.88 10.012 11.801 10.423 11.719 10.846 C 11.997 10.846 12.265 10.837 12.531 10.848 C 12.802 10.861 13.077 10.867 13.34 10.923 C 13.896 11.041 14.13 11.402 14.03 11.97 C 13.917 12.614 13.786 13.255 13.663 13.897 C 13.642 14.01 13.624 14.124 13.595 14.236 C 13.587 14.265 13.547 14.307 13.521 14.308 C 13.2 14.312 12.88 14.311 12.546 14.311 C 12.606 13.999 12.663 13.701 12.72 13.403 C 12.803 12.971 12.891 12.54 12.966 12.106 C 13.021 11.789 12.898 11.632 12.575 11.618 C 12.246 11.604 11.917 11.615 11.569 11.615 C 11.396 12.506 11.221 13.4 11.045 14.302 C 10.709 14.302 10.373 14.302 10.024 14.302 C 10.33 12.731 10.634 11.167 10.94 9.594 Z " fill-rule="evenodd" fill="none" vector-effect="non-scaling-stroke" stroke-width="0.234" stroke="rgb(0,0,0)" stroke-opacity="0.05" stroke-linejoin="miter" stroke-linecap="butt" stroke-miterlimit="4"/></svg>