<?xml version="1.0" standalone="no"?><!-- Generator: Gravit.io --><svg xmlns="http://www.w3.org/2000/svg" xmlns:xlink="http://www.w3.org/1999/xlink" style="isolation:isolate" viewBox="0 0 128 128" width="128" height="128"><g opacity="0.22"><radialGradient id="_rgradient_8" fx="50%" fy="50%" cx="50%" cy="50%" r="50%"><stop offset="0%" style="stop-color:rgb(0,0,0)"/><stop offset="100%" style="stop-color:rgb(0,0,0)"/></radialGradient><path d=" M 119 118 C 118.995 121.291 94.169 123.999 64 123.999 C 33.831 123.999 9.005 121.291 9 118 C 9 118 9 117.999 9 117.999 C 9 114.707 33.828 111.999 64 111.999 C 94.172 111.999 119 114.707 119 117.999 C 119 117.999 119 118 119 118 Z " fill="url(#_rgradient_8)"/></g><g id="g3712"><g id="null" style="opacity:0.4;"><g opacity="0.4"><radialGradient id="_rgradient_9" fx="0%" fy="0%" cx="50%" cy="50%" r="100%" gradientTransform="matrix(1.0018919999999998 0 0 0.5 0.2968203125 0.33984375)"><stop offset="0%" style="stop-color:rgb(24,24,24)"/><stop offset="100%" style="stop-color:rgb(24,24,24)"/></radialGradient><rect x="103.79" y="116" width="14.211" height="5" transform="matrix(1,0,0,1,0,0)" fill="url(#_rgradient_9)"/></g><g id="rect3696" style="opacity:0.4;"><g opacity="0.4"><radialGradient id="_rgradient_10" fx="0%" fy="0%" cx="50%" cy="50%" r="100%" gradientTransform="matrix(1.0018919999999998 0 0 0.5 -0.0781796875 -0.33984375)"><stop offset="0%" style="stop-color:rgb(24,24,24)"/><stop offset="100%" style="stop-color:rgb(24,24,24)"/></radialGradient><rect x="10" y="116" width="14.211" height="5" transform="matrix(-1,0,0,-1,34.211,237)" fill="url(#_rgradient_10)"/></g></g><g opacity="0.4"><linearGradient id="_lgradient_4" x1="53.77892857142857%" y1="100.39571428571436%" x2="53.77892857142859%" y2="-0.008428571428442666%"><stop offset="0%" stop-opacity="0" style="stop-color:rgb(24,24,24)"/><stop offset="50%" stop-opacity="1" style="stop-color:rgb(24,24,24)"/><stop offset="100%" stop-opacity="0" style="stop-color:rgb(24,24,24)"/></linearGradient><rect x="24.211" y="116" width="79.579" height="5" transform="matrix(1,0,0,1,0,0)" fill="url(#_lgradient_4)"/></g></g></g><radialGradient id="_rgradient_11" fx="0%" fy="0%" cx="50%" cy="50%" r="100%" gradientTransform="matrix(0 3.085941747572815 -3.788553398058252 0 0.51714765625 -0.30680390625)"><stop offset="0%" style="stop-color:rgb(147,166,232)"/><stop offset="19.130434782608695%" style="stop-color:rgb(94,108,159)"/><stop offset="50%" style="stop-color:rgb(71,80,113)"/><stop offset="100%" style="stop-color:rgb(57,65,94)"/></radialGradient><path d=" M 115.5 21.555 C 115.5 18.213 112.787 15.5 109.445 15.5 L 18.555 15.5 C 15.213 15.5 12.5 18.213 12.5 21.555 L 12.5 112.445 C 12.5 115.787 15.213 118.5 18.555 118.5 L 109.445 118.5 C 112.787 118.5 115.5 115.787 115.5 112.445 L 115.5 21.555 Z " fill-rule="evenodd" fill="url(#_rgradient_11)"/><linearGradient id="_lgradient_5" x1="50%" y1="-1.351386138613861%" x2="49.999999999999986%" y2="101.35158415841585%"><stop offset="0%" stop-opacity="0.3" style="stop-color:rgb(255,255,255)"/><stop offset="6%" stop-opacity="0.0705882" style="stop-color:rgb(255,255,255)"/><stop offset="95%" stop-opacity="0.0470588" style="stop-color:rgb(255,255,255)"/><stop offset="100%" stop-opacity="0.117647" style="stop-color:rgb(255,255,255)"/></linearGradient><path d=" M 114.5 21.5 C 114.5 18.74 112.26 16.5 109.5 16.5 L 18.5 16.5 C 15.74 16.5 13.5 18.74 13.5 21.5 L 13.5 112.5 C 13.5 115.26 15.74 117.5 18.5 117.5 L 109.5 117.5 C 112.26 117.5 114.5 115.26 114.5 112.5 L 114.5 21.5 Z " fill-rule="evenodd" fill="none" vector-effect="non-scaling-stroke" stroke-width="1" stroke="url(#_lgradient_5)" stroke-linejoin="round" stroke-linecap="round" stroke-miterlimit="4"/><path d=" M 115.5 21.5 C 115.5 18.189 112.811 15.5 109.5 15.5 L 18.5 15.5 C 15.189 15.5 12.5 18.189 12.5 21.5 L 12.5 112.5 C 12.5 115.811 15.189 118.5 18.5 118.5 L 109.5 118.5 C 112.811 118.5 115.5 115.811 115.5 112.5 L 115.5 21.5 Z " fill-rule="evenodd" fill="none" vector-effect="non-scaling-stroke" stroke-width="1" stroke="rgb(47,55,79)" stroke-linejoin="round" stroke-linecap="round" stroke-miterlimit="4"/><path d=" M 79.684 84.375 C 77.744 84.375 75.879 84.375 73.922 84.375 C 75.636 75.561 77.343 66.783 79.053 57.991 C 79.217 57.975 79.352 57.95 79.487 57.95 C 83.202 57.949 86.917 57.92 90.631 57.971 C 91.681 57.985 92.753 58.136 93.772 58.394 C 97.086 59.234 99.05 61.69 99.082 65.102 C 99.121 69.113 97.654 72.466 94.473 75.009 C 92.412 76.657 89.997 77.233 87.439 77.318 C 85.503 77.382 83.563 77.355 81.625 77.345 C 81.212 77.343 81.026 77.435 80.944 77.888 C 80.553 80.039 80.115 82.18 79.684 84.375 Z  M 81.852 73.259 C 83.86 73.18 85.729 73.2 87.577 73.011 C 89.991 72.763 91.707 71.459 92.417 69.096 C 92.757 67.964 92.971 66.763 93.024 65.584 C 93.108 63.717 92.323 62.659 90.471 62.405 C 88.363 62.116 86.215 62.12 84.042 61.994 C 83.303 65.794 82.594 69.444 81.852 73.259 Z  M 34.677 84.366 C 32.739 84.366 30.854 84.366 28.917 84.366 C 30.628 75.561 32.332 66.795 34.043 57.993 C 34.234 57.977 34.411 57.95 34.589 57.95 C 38.234 57.948 41.88 57.922 45.525 57.969 C 46.552 57.982 47.601 58.115 48.6 58.359 C 51.883 59.16 53.777 61.239 54.027 64.594 C 54.514 71.143 50.133 75.762 45.8 76.82 C 44.644 77.102 43.439 77.259 42.249 77.313 C 40.361 77.397 38.467 77.355 36.575 77.345 C 36.185 77.343 36.018 77.444 35.941 77.86 C 35.546 80.011 35.111 82.156 34.677 84.366 Z  M 36.843 73.258 C 38.837 73.18 40.707 73.202 42.555 73.012 C 45.031 72.758 46.752 71.404 47.448 68.976 C 47.762 67.882 47.968 66.729 48.017 65.594 C 48.097 63.728 47.314 62.661 45.469 62.407 C 43.36 62.117 41.211 62.12 39.033 61.993 C 38.294 65.793 37.584 69.444 36.843 73.258 Z  M 58.051 50.936 C 59.994 50.936 61.856 50.936 63.766 50.936 C 63.314 53.28 62.87 55.581 62.414 57.948 C 63.968 57.948 65.467 57.895 66.961 57.962 C 68.475 58.03 70.016 58.067 71.489 58.38 C 74.602 59.042 75.912 61.064 75.354 64.244 C 74.721 67.85 73.988 71.439 73.299 75.035 C 73.177 75.668 73.077 76.307 72.917 76.93 C 72.875 77.095 72.647 77.331 72.502 77.333 C 70.708 77.361 68.913 77.351 67.042 77.351 C 67.378 75.604 67.7 73.937 68.02 72.269 C 68.483 69.848 68.975 67.433 69.394 65.006 C 69.701 63.231 69.015 62.35 67.206 62.271 C 65.366 62.191 63.52 62.253 61.574 62.253 C 60.602 67.245 59.626 72.252 58.641 77.305 C 56.756 77.305 54.878 77.305 52.924 77.305 C 54.635 68.506 56.338 59.744 58.051 50.936 Z " fill-rule="evenodd" fill="rgb(255,255,255)" fill-opacity="0.1"/><path d=" M 79.684 83.064 C 77.744 83.064 75.879 83.064 73.922 83.064 C 75.636 74.25 77.343 65.472 79.053 56.679 C 79.217 56.663 79.352 56.638 79.487 56.638 C 83.202 56.638 86.917 56.609 90.631 56.66 C 91.681 56.674 92.753 56.825 93.772 57.083 C 97.086 57.922 99.05 60.379 99.082 63.79 C 99.121 67.801 97.654 71.155 94.473 73.698 C 92.412 75.345 89.997 75.922 87.439 76.007 C 85.503 76.071 83.563 76.043 81.625 76.033 C 81.212 76.031 81.026 76.124 80.944 76.577 C 80.553 78.727 80.115 80.869 79.684 83.064 Z  M 81.852 71.947 C 83.86 71.869 85.729 71.889 87.577 71.699 C 89.991 71.452 91.707 70.148 92.417 67.785 C 92.757 66.653 92.971 65.452 93.024 64.272 C 93.108 62.406 92.323 61.348 90.471 61.094 C 88.363 60.805 86.215 60.808 84.042 60.682 C 83.303 64.482 82.594 68.133 81.852 71.947 Z  M 34.677 83.054 C 32.739 83.054 30.854 83.054 28.917 83.054 C 30.628 74.25 32.332 65.484 34.043 56.681 C 34.234 56.666 34.411 56.638 34.589 56.638 C 38.234 56.637 41.88 56.611 45.525 56.658 C 46.552 56.671 47.601 56.804 48.6 57.048 C 51.883 57.849 53.777 59.928 54.027 63.283 C 54.514 69.831 50.133 74.45 45.8 75.509 C 44.644 75.791 43.439 75.948 42.249 76.001 C 40.361 76.086 38.467 76.044 36.575 76.034 C 36.185 76.032 36.018 76.133 35.941 76.549 C 35.546 78.7 35.111 80.844 34.677 83.054 Z  M 36.843 71.946 C 38.837 71.869 40.707 71.89 42.555 71.701 C 45.031 71.447 46.752 70.093 47.448 67.665 C 47.762 66.571 47.968 65.417 48.017 64.282 C 48.097 62.416 47.314 61.349 45.469 61.096 C 43.36 60.806 41.211 60.809 39.033 60.681 C 38.294 64.481 37.584 68.133 36.843 71.946 Z  M 58.051 49.625 C 59.994 49.625 61.856 49.625 63.766 49.625 C 63.314 51.969 62.87 54.27 62.414 56.636 C 63.968 56.636 65.467 56.584 66.961 56.651 C 68.475 56.719 70.016 56.756 71.489 57.069 C 74.602 57.731 75.912 59.753 75.354 62.933 C 74.721 66.539 73.988 70.127 73.299 73.723 C 73.177 74.357 73.077 74.995 72.917 75.619 C 72.875 75.784 72.647 76.019 72.502 76.022 C 70.708 76.049 68.913 76.04 67.042 76.04 C 67.378 74.293 67.7 72.625 68.02 70.957 C 68.483 68.537 68.975 66.122 69.394 63.695 C 69.701 61.919 69.015 61.039 67.206 60.96 C 65.366 60.879 63.52 60.942 61.574 60.942 C 60.602 65.934 59.626 70.941 58.641 75.993 C 56.756 75.993 54.878 75.993 52.924 75.993 C 54.635 67.195 56.338 58.433 58.051 49.625 Z " fill-rule="evenodd" fill="rgb(47,55,79)"/><path d=" M 79.684 83.064 C 77.744 83.064 75.879 83.064 73.922 83.064 C 75.636 74.25 77.343 65.472 79.053 56.679 C 79.217 56.663 79.352 56.638 79.487 56.638 C 83.202 56.638 86.917 56.609 90.631 56.66 C 91.681 56.674 92.753 56.825 93.772 57.083 C 97.086 57.922 99.05 60.379 99.082 63.79 C 99.121 67.801 97.654 71.155 94.473 73.698 C 92.412 75.345 89.997 75.922 87.439 76.007 C 85.503 76.071 83.563 76.043 81.625 76.033 C 81.212 76.031 81.026 76.124 80.944 76.577 C 80.553 78.727 80.115 80.869 79.684 83.064 Z  M 81.852 71.947 C 83.86 71.869 85.729 71.889 87.577 71.699 C 89.991 71.452 91.707 70.148 92.417 67.785 C 92.757 66.653 92.971 65.452 93.024 64.272 C 93.108 62.406 92.323 61.348 90.471 61.094 C 88.363 60.805 86.215 60.808 84.042 60.682 C 83.303 64.482 82.594 68.133 81.852 71.947 Z  M 34.677 83.054 C 32.739 83.054 30.854 83.054 28.917 83.054 C 30.628 74.25 32.332 65.484 34.043 56.681 C 34.234 56.666 34.411 56.638 34.589 56.638 C 38.234 56.637 41.88 56.611 45.525 56.658 C 46.552 56.671 47.601 56.804 48.6 57.048 C 51.883 57.849 53.777 59.928 54.027 63.283 C 54.514 69.831 50.133 74.45 45.8 75.509 C 44.644 75.791 43.439 75.948 42.249 76.001 C 40.361 76.086 38.467 76.044 36.575 76.034 C 36.185 76.032 36.018 76.133 35.941 76.549 C 35.546 78.7 35.111 80.844 34.677 83.054 Z  M 36.843 71.946 C 38.837 71.869 40.707 71.89 42.555 71.701 C 45.031 71.447 46.752 70.093 47.448 67.665 C 47.762 66.571 47.968 65.417 48.017 64.282 C 48.097 62.416 47.314 61.349 45.469 61.096 C 43.36 60.806 41.211 60.809 39.033 60.681 C 38.294 64.481 37.584 68.133 36.843 71.946 Z  M 58.051 49.625 C 59.994 49.625 61.856 49.625 63.766 49.625 C 63.314 51.969 62.87 54.27 62.414 56.636 C 63.968 56.636 65.467 56.584 66.961 56.651 C 68.475 56.719 70.016 56.756 71.489 57.069 C 74.602 57.731 75.912 59.753 75.354 62.933 C 74.721 66.539 73.988 70.127 73.299 73.723 C 73.177 74.357 73.077 74.995 72.917 75.619 C 72.875 75.784 72.647 76.019 72.502 76.022 C 70.708 76.049 68.913 76.04 67.042 76.04 C 67.378 74.293 67.7 72.625 68.02 70.957 C 68.483 68.537 68.975 66.122 69.394 63.695 C 69.701 61.919 69.015 61.039 67.206 60.96 C 65.366 60.879 63.52 60.942 61.574 60.942 C 60.602 65.934 59.626 70.941 58.641 75.993 C 56.756 75.993 54.878 75.993 52.924 75.993 C 54.635 67.195 56.338 58.433 58.051 49.625 Z " fill-rule="evenodd" fill="none" vector-effect="non-scaling-stroke" stroke-width="1.311" stroke="rgb(0,0,0)" stroke-opacity="0.05" stroke-linejoin="miter" stroke-linecap="butt" stroke-miterlimit="4"/></svg>